<svg width="80" height="80" viewBox="0 0 80 80" fill="none" xmlns="http://www.w3.org/2000/svg">
<path fill-rule="evenodd" clip-rule="evenodd" d="M39.8472 79.9997L39.883 79.9998H39.8706L39.8472 79.9997ZM40.1294 79.9998H40.117L40.1528 79.9997L40.1294 79.9998ZM39.725 79.9991L39.7636 79.9992H39.7414L39.725 79.9991ZM40.2586 79.9992H40.2364L40.275 79.9991L40.2586 79.9992ZM39.6072 79.9981L39.633 79.9983L39.6123 79.9981H39.6072ZM40.3877 79.9981L40.367 79.9983L40.3928 79.9981H40.3877ZM40.5167 79.9967L40.5077 79.9969L40.5425 79.9964L40.5167 79.9967ZM39.4575 79.9964L39.4923 79.9969L39.4833 79.9967L39.4575 79.9964ZM40.6456 79.9948L40.6245 79.9952L40.6675 79.9945L40.6456 79.9948ZM39.3325 79.9945L39.3755 79.9952L39.3544 79.9948L39.3325 79.9945ZM40.7744 79.9927L40.7459 79.9931L40.7856 79.9923L40.7744 79.9927ZM39.2144 79.9923L39.2541 79.9931L39.2256 79.9927L39.2144 79.9923ZM39.068 79.9894L39.1031 79.9902L39.0969 79.99L39.068 79.9894ZM40.9031 79.99L40.8969 79.9902L40.932 79.9894L40.9031 79.99ZM38.9395 79.9861L38.9878 79.9873L38.9683 79.9869L38.9395 79.9861ZM41.0317 79.9869L41.0122 79.9873L41.0605 79.9861L41.0317 79.9869ZM41.1603 79.9834L41.1289 79.9844L41.1783 79.983L41.1603 79.9834ZM38.8217 79.983L38.8711 79.9844L38.8397 79.9834L38.8217 79.983ZM38.7092 79.9795L38.7444 79.9806L38.7113 79.9795L38.6809 79.9786L38.7092 79.9795ZM41.2887 79.9795L41.2556 79.9806L41.2908 79.9795L41.3191 79.9786L41.2887 79.9795ZM41.417 79.9753L41.3995 79.9759L41.4534 79.9741L41.417 79.9753ZM38.5466 79.9741L38.6005 79.9759L38.583 79.9753L38.5466 79.9741ZM38.4295 79.9697L38.4861 79.9717L38.4547 79.9706L38.4295 79.9697ZM41.5453 79.9706L41.5139 79.9717L41.5705 79.9697L41.5453 79.9706ZM38.3147 79.965L38.37 79.9673L38.3267 79.9656L38.3147 79.965ZM41.6733 79.9656L41.63 79.9673L41.6853 79.965L41.6733 79.9656ZM38.1538 79.958L38.2131 79.9606L38.1986 79.9602L38.1538 79.958ZM41.8014 79.9602L41.7869 79.9606L41.8463 79.958L41.8014 79.9602ZM38.0383 79.9527L38.0998 79.9555L38.0708 79.9542L38.0383 79.9527ZM41.9292 79.9542L41.9002 79.9555L41.9617 79.9527L41.9292 79.9542ZM37.9245 79.9469L37.9866 79.95L37.943 79.948L37.9245 79.9469ZM42.057 79.948L42.0134 79.95L42.0755 79.9469L42.057 79.948ZM42.1848 79.9412L42.1283 79.9442L42.1784 79.9416L42.2375 79.9383L42.1848 79.9412ZM37.8216 79.9416L37.8717 79.9442L37.8152 79.9412L37.7625 79.9383L37.8216 79.9416ZM42.3123 79.9341L42.2873 79.9355L42.3508 79.9319L42.3123 79.9341ZM37.6492 79.9319L37.7127 79.9355L37.6877 79.9341L37.6492 79.9319ZM37.5364 79.9252L37.5997 79.9289L37.5602 79.9267L37.5364 79.9252ZM42.4398 79.9267L42.4003 79.9289L42.4636 79.9252L42.4398 79.9267ZM37.4287 79.9184L37.4858 79.922L37.4327 79.9188L37.3792 79.9153L37.4287 79.9184ZM42.5673 79.9188L42.5142 79.922L42.5713 79.9184L42.6208 79.9153L42.5673 79.9188ZM42.6945 79.9105L42.6755 79.9117L42.7359 79.9077L42.6945 79.9105ZM37.2641 79.9077L37.3245 79.9117L37.3055 79.9105L37.2641 79.9077ZM37.1514 79.8998L37.2108 79.9041L37.1783 79.9019L37.1514 79.8998ZM42.8217 79.9019L42.7892 79.9041L42.8486 79.8998L42.8217 79.9019ZM37.0391 79.8919L37.0936 79.8958L37.0513 79.8928L37.0391 79.8919ZM42.9488 79.8928L42.9064 79.8958L42.9609 79.8919L42.9488 79.8928ZM36.888 79.8805L36.9358 79.8841L36.9242 79.8833L36.888 79.8805ZM43.0758 79.8833L43.0642 79.8841L43.112 79.8805L43.0758 79.8833ZM43.2025 79.8734L43.1797 79.8752L43.2283 79.8712L43.2025 79.8734ZM36.7717 79.8712L36.8203 79.8752L36.7975 79.8734L36.7717 79.8712ZM36.6584 79.862L36.6997 79.8655L36.6706 79.8631L36.6584 79.862ZM43.3294 79.8631L43.3003 79.8655L43.3416 79.862L43.3294 79.8631ZM36.5337 79.8516L36.5461 79.8527L36.5441 79.8525L36.5337 79.8516ZM43.4559 79.8525L43.4539 79.8527L43.4662 79.8516L43.4559 79.8525ZM43.5825 79.8414L43.5712 79.8423L43.5995 79.8398L43.5825 79.8414ZM36.4005 79.8398L36.4287 79.8423L36.4175 79.8414L36.4005 79.8398ZM36.2833 79.8292L36.3044 79.8313L36.2913 79.83L36.2833 79.8292ZM43.7087 79.83L43.6956 79.8313L43.7167 79.8292L43.7087 79.83ZM33.75 79.5136C14.6377 76.5095 0 59.9506 0 40C0 17.9234 17.9234 0 40 0C62.0766 0 80 17.9234 80 40C80 59.9506 65.3623 76.5095 46.25 79.5136V51.5625H55.5703L57.3438 40H46.25V32.4967C46.25 29.3334 47.7997 26.25 52.7686 26.25H57.8125V16.4062C57.8125 16.4062 53.235 15.625 48.8586 15.625C39.7217 15.625 33.75 21.1625 33.75 31.1875V40H23.5938V51.5625H33.75V79.5136Z" fill="white"/>
</svg>
