<svg width="80" height="80" viewBox="0 0 80 80" fill="none" xmlns="http://www.w3.org/2000/svg">
<path d="M40 0C17.9102 0 0 17.8963 0 39.9759C0 62.0556 17.9103 79.9512 40 79.9512C46.9651 79.9512 55.5191 78.2022 61.6226 74.9039L76.497 79.8166C77.4553 80.1331 78.5101 79.8816 79.2224 79.1667C79.9347 78.4518 80.1824 77.396 79.8624 76.4389L74.9204 61.6581C78.5095 55.4048 80 47.225 80 39.9759C80 17.8963 62.0898 0 40 0Z" fill="white"/>
<path d="M60.375 49C56.0343 49 52.5 45.7182 52.5 41.6875C52.5 37.6569 56.0343 34.375 60.375 34.375C64.7157 34.375 68.25 37.6569 68.25 41.6875C68.25 45.7182 64.7157 49 60.375 49ZM60.375 37.3C57.771 37.3 55.65 39.2695 55.65 41.6875C55.65 44.1055 57.771 46.075 60.375 46.075C62.979 46.075 65.1 44.1055 65.1 41.6875C65.1 39.2695 62.979 37.3 60.375 37.3Z" fill="#333333"/>
<path d="M50.25 49H48C47.379 49 46.875 48.552 46.875 48V31H50.25V49Z" fill="#333333"/>
<path d="M40.575 34.8625V35.8745C39.3484 34.9463 37.8391 34.375 36.1875 34.375C32.1569 34.375 28.875 37.6569 28.875 41.6875C28.875 45.7181 32.1569 49 36.1875 49C37.8391 49 39.3484 48.4287 40.575 47.5005V48.025C40.575 48.5632 41.0118 49 41.55 49H43.5V34.8625H40.575ZM36.1875 46.075C33.7695 46.075 31.8 44.1055 31.8 41.6875C31.8 39.2695 33.7695 37.3 36.1875 37.3C38.6055 37.3 40.575 39.2695 40.575 41.6875C40.575 44.1055 38.6055 46.075 36.1875 46.075Z" fill="#333333"/>
<path d="M30 31H13.0588V34H24.3268L12.5294 47H12.5845C12.2393 47.422 12 47.926 12 48.5V49H27.8824C28.4668 49 28.9412 48.552 28.9412 48V46H17.6732L29.4706 33H29.4155C29.7607 32.578 30 32.074 30 31.5V31Z" fill="#333333"/>
</svg>
